<svg width="637" height="181" viewBox="0 0 637 181" fill="none" xmlns="http://www.w3.org/2000/svg">
<path d="M71.3848 27.6328H46.8027C46.3587 25.8568 45.8542 24.5853 45.2891 23.8184C43.5938 21.5983 40.6068 20.4883 36.3281 20.4883C33.9062 20.4883 31.888 20.9323 30.2734 21.8203C28.5781 22.7891 27.7305 24.1211 27.7305 25.8164C27.7305 27.3099 28.6589 28.4805 30.5156 29.3281C31.6055 29.8125 34.9961 30.8014 40.6875 32.2949C49.7695 34.6361 55.7637 36.4121 58.6699 37.623C69.4473 42.2246 74.8359 49.6113 74.8359 59.7832C74.8359 65.8783 72.8379 71.3073 68.8418 76.0703C62.222 83.9414 51.9694 87.877 38.084 87.877C27.2259 87.877 18.4062 85.5156 11.625 80.793C4.07682 75.5456 0.322917 68.3607 0.363281 59.2383H25.4902C25.8939 61.4583 26.3984 63.0729 27.0039 64.082C28.9414 67.2708 32.6953 68.8652 38.2656 68.8652C41.5352 68.8652 44.2396 68.3203 46.3789 67.2305C48.4779 66.1406 49.5273 64.5462 49.5273 62.4473C49.5273 60.5501 48.6393 59.1576 46.8633 58.2695C46.0156 57.8659 43.7148 57.0788 39.9609 55.9082C28.7799 52.679 21.2721 50.237 17.4375 48.582C7.66927 44.263 2.78516 37.0781 2.78516 27.0273C2.78516 19.237 5.59049 13.0814 11.2012 8.56055C14.2285 6.09831 17.4779 4.40299 20.9492 3.47461C25.9141 2.14258 31.4238 1.47656 37.4785 1.47656C50.7181 1.47656 60.1634 4.94792 65.8145 11.8906C68.8822 15.6849 70.7389 20.9323 71.3848 27.6328ZM163.077 54.6367C162.068 62.75 159.283 69.5312 154.721 74.9805C147.537 83.5781 137.708 87.877 125.235 87.877C114.377 87.877 105.194 84.6276 97.6863 78.1289C93.4884 74.4557 90.1381 69.9551 87.6355 64.627C84.7697 58.4512 83.3367 51.6901 83.3367 44.3438C83.3367 36.0286 85.2339 28.4401 89.0281 21.5781C93.3471 13.8685 99.4018 8.27799 107.192 4.80664C112.278 2.54622 117.808 1.41602 123.782 1.41602C132.501 1.41602 140.271 3.67643 147.093 8.19727C153.591 12.5566 158.052 18.0664 160.473 24.7266C161.402 27.2292 162.007 30.3372 162.29 34.0508H138.011C137.607 30.7812 136.557 28.1777 134.862 26.2402C132.279 23.334 128.747 21.8809 124.266 21.8809C119.947 21.8809 116.537 23.4753 114.034 26.6641C110.361 31.3867 108.524 37.5625 108.524 45.1914C108.524 52.6992 110.32 58.5117 113.913 62.6289C116.658 65.8177 120.351 67.4121 124.993 67.4121C130.24 67.4121 134.014 65.2526 136.315 60.9336C137.203 59.2383 137.789 57.1393 138.071 54.6367H163.077ZM249.705 0.6875V86H224.08V52.375H198.142V86H172.517V0.6875H198.142V30.1875H224.08V0.6875H249.705ZM377.73 0.6875L354.292 86H328.605L318.73 31.4375L309.355 86H283.667L259.417 0.6875H284.542L296.73 52.1875L307.417 0.6875H329.917L340.98 52.1875L353.042 0.6875H377.73ZM406.567 73.875L402.442 86H376.942L408.192 0.6875H433.942L465.192 86H438.942L435.005 73.875H406.567ZM412.505 56.25H429.192L421.192 31.125L412.505 56.25ZM500.53 56.625V86H474.905V0.6875H516.03C525.405 0.6875 532.738 1.91667 538.03 4.375C547.321 8.66667 551.967 15.9583 551.967 26.25C551.967 36.2083 547.196 43.2083 537.655 47.25C542.321 48.8333 545.821 52 548.155 56.75C549.863 60.5417 550.801 66.4375 550.967 74.4375C551.134 78.8958 551.467 81.8333 551.967 83.25C552.259 84.0833 552.676 85 553.217 86H526.592C525.967 83.5833 525.571 79.9583 525.405 75.125C525.113 68.125 524.009 63.375 522.092 60.875C520.676 59 518.884 57.7708 516.717 57.1875C515.426 56.8125 513.571 56.625 511.155 56.625H500.53ZM500.53 21.625V38.1875H515.155C518.238 38.1875 520.363 37.9375 521.53 37.4375C524.446 36.1458 525.905 33.5417 525.905 29.625C525.905 25.75 524.321 23.2708 521.155 22.1875C520.03 21.8125 518.051 21.625 515.217 21.625H500.53ZM635.367 63.8125V86H560.93V63.8125L598.18 22.875H563.242V0.6875H632.867V20.25L593.305 63.8125H635.367Z" fill="#2C3242"/>
<rect x="18.5" y="114" width="600" height="12" fill="#2C3242"/>
<path d="M81.3275 146.4H71.2475C70.3355 146.4 69.5675 147.168 69.5675 148.128V178.272C69.5675 179.232 70.3355 180 71.2475 180H81.3275C92.5115 180 99.1355 173.472 99.1355 163.2C99.1355 152.928 92.5115 146.4 81.3275 146.4ZM81.3275 172.224H77.7755V154.128H81.3275C86.7995 154.128 90.9275 157.248 90.9275 163.2C90.9275 169.152 86.7995 172.224 81.3275 172.224ZM107.339 148.128V178.272C107.339 179.232 108.107 180 109.067 180H113.867C114.827 180 115.595 179.232 115.595 178.272V148.128C115.595 147.168 114.827 146.4 113.867 146.4H109.067C108.107 146.4 107.339 147.168 107.339 148.128ZM133.116 172.224V166.704H142.332C143.292 166.704 144.06 165.936 144.06 164.976V161.088C144.06 160.128 143.292 159.36 142.332 159.36H133.116V154.128H143.868C144.828 154.128 145.596 153.36 145.596 152.448V148.128C145.596 147.168 144.828 146.4 143.868 146.4H126.636C125.676 146.4 124.908 147.168 124.908 148.128V178.272C124.908 179.232 125.676 180 126.636 180H144.3C145.26 180 146.028 179.232 146.028 178.272V173.952C146.028 172.992 145.26 172.224 144.3 172.224H133.116ZM174.734 148.128V165.984L162.398 147.552C161.918 146.832 161.15 146.4 160.286 146.4H156.158C155.198 146.4 154.43 147.168 154.43 148.128V178.272C154.43 179.232 155.198 180 156.158 180H161.006C161.918 180 162.686 179.232 162.686 178.272V160.416L175.07 178.848C175.502 179.568 176.318 180 177.182 180H181.31C182.222 180 182.99 179.232 182.99 178.272V148.128C182.99 147.168 182.222 146.4 181.31 146.4H176.462C175.502 146.4 174.734 147.168 174.734 148.128ZM206.551 160.032C203.959 159.312 199.927 158.688 199.927 156.048C199.927 154.128 201.559 152.832 203.959 152.832C206.215 152.832 207.559 153.792 208.231 154.992C208.615 155.616 209.383 155.904 210.103 155.76L214.471 154.656C215.527 154.416 216.055 153.264 215.623 152.304C213.751 148.128 209.383 145.776 204.295 145.776C197.335 145.776 191.959 149.616 191.959 156.096C191.959 161.712 195.031 164.784 201.751 166.464C205.543 167.424 208.807 167.76 208.807 170.304C208.807 172.512 206.743 173.616 203.911 173.616C201.079 173.616 199.351 172.32 198.535 170.88C198.103 170.16 197.287 169.872 196.519 170.112L192.151 171.456C191.191 171.792 190.663 172.848 191.047 173.76C193.159 178.656 198.439 180.576 204.007 180.576C212.407 180.576 217.159 175.632 217.159 170.16C217.159 164.88 214.759 162.336 206.551 160.032ZM245.32 146.4H224.824C223.864 146.4 223.096 147.168 223.096 148.128V152.448C223.096 153.36 223.864 154.128 224.824 154.128H230.968V178.272C230.968 179.232 231.736 180 232.648 180H237.448C238.408 180 239.176 179.232 239.176 178.272V154.128H245.32C246.28 154.128 247.048 153.36 247.048 152.448V148.128C247.048 147.168 246.28 146.4 245.32 146.4ZM263.157 172.224V148.128C263.157 147.168 262.389 146.4 261.477 146.4H256.629C255.717 146.4 254.949 147.168 254.949 148.128V178.272C254.949 179.232 255.717 180 256.629 180H274.005C274.917 180 275.685 179.232 275.685 178.272V173.952C275.685 172.992 274.917 172.224 274.005 172.224H263.157ZM291.882 172.224V166.704H301.098C302.058 166.704 302.826 165.936 302.826 164.976V161.088C302.826 160.128 302.058 159.36 301.098 159.36H291.882V154.128H302.634C303.594 154.128 304.362 153.36 304.362 152.448V148.128C304.362 147.168 303.594 146.4 302.634 146.4H285.402C284.442 146.4 283.674 147.168 283.674 148.128V178.272C283.674 179.232 284.442 180 285.402 180H303.066C304.026 180 304.794 179.232 304.794 178.272V173.952C304.794 172.992 304.026 172.224 303.066 172.224H291.882ZM313.196 148.128V178.272C313.196 179.232 313.964 180 314.924 180H319.724C320.684 180 321.452 179.232 321.452 178.272V148.128C321.452 147.168 320.684 146.4 319.724 146.4H314.924C313.964 146.4 313.196 147.168 313.196 148.128ZM344.972 160.032C342.38 159.312 338.348 158.688 338.348 156.048C338.348 154.128 339.98 152.832 342.38 152.832C344.636 152.832 345.98 153.792 346.652 154.992C347.036 155.616 347.804 155.904 348.524 155.76L352.892 154.656C353.948 154.416 354.476 153.264 354.044 152.304C352.172 148.128 347.804 145.776 342.716 145.776C335.756 145.776 330.38 149.616 330.38 156.096C330.38 161.712 333.452 164.784 340.172 166.464C343.964 167.424 347.228 167.76 347.228 170.304C347.228 172.512 345.164 173.616 342.332 173.616C339.5 173.616 337.772 172.32 336.956 170.88C336.524 170.16 335.708 169.872 334.94 170.112L330.572 171.456C329.612 171.792 329.084 172.848 329.468 173.76C331.58 178.656 336.86 180.576 342.428 180.576C350.828 180.576 355.58 175.632 355.58 170.16C355.58 164.88 353.18 162.336 344.972 160.032ZM383.742 146.4H363.246C362.286 146.4 361.518 147.168 361.518 148.128V152.448C361.518 153.36 362.286 154.128 363.246 154.128H369.39V178.272C369.39 179.232 370.158 180 371.07 180H375.87C376.83 180 377.598 179.232 377.598 178.272V154.128H383.742C384.702 154.128 385.47 153.36 385.47 152.448V148.128C385.47 147.168 384.702 146.4 383.742 146.4ZM414.923 146.4C413.963 146.4 413.195 147.168 413.195 148.128V166.08C413.195 170.544 411.083 172.704 407.387 172.704C403.739 172.704 401.579 170.544 401.579 166.08V148.128C401.579 147.168 400.811 146.4 399.899 146.4H395.051C394.139 146.4 393.371 147.168 393.371 148.128V166.944C393.371 176.112 398.603 180.576 407.387 180.576C416.171 180.576 421.451 176.112 421.451 166.944V148.128C421.451 147.168 420.683 146.4 419.723 146.4H414.923ZM451.118 148.128V165.984L438.782 147.552C438.302 146.832 437.534 146.4 436.67 146.4H432.542C431.582 146.4 430.814 147.168 430.814 148.128V178.272C430.814 179.232 431.582 180 432.542 180H437.39C438.302 180 439.07 179.232 439.07 178.272V160.416L451.454 178.848C451.886 179.568 452.702 180 453.566 180H457.694C458.606 180 459.374 179.232 459.374 178.272V148.128C459.374 147.168 458.606 146.4 457.694 146.4H452.846C451.886 146.4 451.118 147.168 451.118 148.128ZM484.615 162.288V165.36C484.615 166.32 485.383 167.088 486.295 167.088H492.871C491.767 170.256 489.175 172.704 484.615 172.704C478.759 172.704 475.783 167.952 475.783 163.2C475.783 158.448 478.759 153.696 484.615 153.696C487.063 153.696 488.983 154.512 490.423 155.856C490.999 156.384 491.863 156.48 492.535 156.048L496.567 153.36C497.479 152.784 497.575 151.488 496.855 150.72C493.831 147.648 489.559 145.776 484.615 145.776C474.679 145.776 467.527 153.216 467.527 163.2C467.527 173.136 474.679 180.576 484.615 180.576C489.463 180.576 493.015 178.8 495.415 175.824L496.231 178.896C496.423 179.52 496.999 180 497.671 180H498.967C499.783 180 500.455 179.328 500.455 178.512V162.288C500.455 161.328 499.687 160.56 498.775 160.56H486.295C485.383 160.56 484.615 161.328 484.615 162.288ZM517.566 172.224V166.704H526.782C527.742 166.704 528.51 165.936 528.51 164.976V161.088C528.51 160.128 527.742 159.36 526.782 159.36H517.566V154.128H528.318C529.278 154.128 530.046 153.36 530.046 152.448V148.128C530.046 147.168 529.278 146.4 528.318 146.4H511.086C510.126 146.4 509.358 147.168 509.358 148.128V178.272C509.358 179.232 510.126 180 511.086 180H528.75C529.71 180 530.478 179.232 530.478 178.272V173.952C530.478 172.992 529.71 172.224 528.75 172.224H517.566ZM559.184 148.128V165.984L546.848 147.552C546.368 146.832 545.6 146.4 544.736 146.4H540.608C539.648 146.4 538.88 147.168 538.88 148.128V178.272C538.88 179.232 539.648 180 540.608 180H545.456C546.368 180 547.136 179.232 547.136 178.272V160.416L559.52 178.848C559.952 179.568 560.768 180 561.632 180H565.76C566.672 180 567.44 179.232 567.44 178.272V148.128C567.44 147.168 566.672 146.4 565.76 146.4H560.912C559.952 146.4 559.184 147.168 559.184 148.128Z" fill="#2C3242"/>
</svg>
